<svg width="119" height="119" viewBox="0 0 119 119" fill="none" xmlns="http://www.w3.org/2000/svg">
<path fill-rule="evenodd" clip-rule="evenodd" d="M61.2193 15.2807L68.3796 0.280701H51.059L58.2193 15.2807L58.2193 49.0856C58.6382 49.0291 59.0657 49 59.5 49C60.0871 49 60.6617 49.0532 61.2193 49.1552L61.2193 15.2807ZM61.2193 67.8448C60.6617 67.9467 60.0871 68 59.5 68C59.0657 68 58.6382 67.9709 58.2193 67.9144L58.2193 103.281H51.059L59.7193 118.281L68.3796 103.281H61.2193L61.2193 67.8448Z" fill="#6D597A"/>
<path fill-rule="evenodd" clip-rule="evenodd" d="M29.6673 27.1073L24.1237 11.4377L11.8763 23.6851L27.5459 29.2287L51.5757 53.2584C52.1325 52.4182 52.8194 51.6718 53.6076 51.0477L29.6673 27.1073ZM66.9523 64.3924C66.3282 65.1806 65.5818 65.8675 64.7416 66.4243L89.7713 91.4541L84.7083 96.5171L101.439 101L96.9557 84.2697L91.8927 89.3327L66.9523 64.3924Z" fill="#355070"/>
<path fill-rule="evenodd" clip-rule="evenodd" d="M68.7245 60.7807C68.9045 60.0501 69 59.2862 69 58.5C69 58.258 68.991 58.0181 68.9732 57.7807H103.719V50.6205L118.719 59.2807L103.719 67.941V60.7807H68.7245ZM50.2755 60.7807H15.7193L0.719299 67.941V50.6205L15.7193 57.7807H50.0268C50.009 58.0181 50 58.258 50 58.5C50 59.2862 50.0955 60.0501 50.2755 60.7807Z" fill="#E56B6F"/>
<path fill-rule="evenodd" clip-rule="evenodd" d="M27.5459 89.3327L11.8763 94.8763L24.1237 107.124L29.6673 91.4541L54.526 66.5953C53.6651 66.0653 52.8952 65.4017 52.2451 64.6336L27.5459 89.3327ZM65.6336 51.2451C66.4017 51.8952 67.0653 52.6651 67.5953 53.526L91.8927 29.2287L96.9557 34.2917L101.439 17.5614L84.7083 22.0443L89.7713 27.1074L65.6336 51.2451Z" fill="#B56576"/>
</svg>
