<svg width="162" height="162" viewBox="0 0 162 162" fill="none" xmlns="http://www.w3.org/2000/svg">
<path fill-rule="evenodd" clip-rule="evenodd" d="M60.0183 42.4256L58.7193 25.8551L43.7193 34.5153L57.4203 43.9256L74.3227 73.2015C74.6572 72.9432 75.0129 72.7042 75.389 72.487C75.8974 72.1935 76.4217 71.9523 76.9556 71.7617L60.0183 42.4256ZM86.3004 87.9474C85.8684 88.3145 85.3974 88.648 84.889 88.9415C84.5129 89.1586 84.1281 89.3472 83.7371 89.5077L101.42 120.136L95.2193 123.716L110.219 132.376L110.219 115.056L104.018 118.636L86.3004 87.9474Z" fill="#6D597A"/>
<path fill-rule="evenodd" clip-rule="evenodd" d="M38.6068 68.4438L25.9711 57.6452L21.4882 74.3755L37.8303 71.3416L70.6555 80.137C70.7177 79.131 70.9393 78.1411 71.3099 77.2066L38.6068 68.4438ZM89.5391 82.091C89.3928 83.0857 89.0897 84.0538 88.6406 84.9561L122.832 94.1176L120.979 101.034L137.709 96.551L125.461 84.3036L123.608 91.2198L89.5391 82.091Z" fill="#355070"/>
<path fill-rule="evenodd" clip-rule="evenodd" d="M89.268 78.0772C89.0586 77.3544 88.7594 76.6451 88.3663 75.9642C88.2453 75.7547 88.1175 75.5515 87.9834 75.3547L118.074 57.9817L114.494 51.7807L131.815 51.7807L123.155 66.7807L119.574 60.5797L89.268 78.0772ZM73.2908 87.3016L43.3642 104.58L33.9539 118.281L25.2937 103.281L41.8642 101.982L71.5754 84.8279C71.6787 85.0424 71.7908 85.2547 71.9118 85.4642C72.3049 86.1451 72.7695 86.7589 73.2908 87.3016Z" fill="#E56B6F"/>
<path fill-rule="evenodd" clip-rule="evenodd" d="M67.8824 123.393L57.0838 136.029L73.8141 140.512L70.7801 124.17L79.8791 90.212C78.8685 90.1834 77.87 89.9937 76.9229 89.6535L67.8824 123.393ZM81.8234 71.3646C82.8137 71.5435 83.7733 71.8785 84.6628 72.3589L93.5562 39.1682L100.473 41.0214L95.9896 24.2911L83.7422 36.5385L90.6584 38.3917L81.8234 71.3646Z" fill="#B56576"/>
</svg>
